Coordinates
version=1
nRows=24
nColumns=24
inDegrees=yes

Units are S.I. units (second, meters, Newtons, ...)
Angles are in degrees.

endheader
time	pelvis_tilt	pelvis_list	pelvis_rotation	pelvis_tx	pelvis_ty	pelvis_tz	hip_flexion_r	hip_adduction_r	hip_rotation_r	knee_angle_r	ankle_angle_r	subtalar_angle_r	mtp_angle_r	hip_flexion_l	hip_adduction_l	hip_rotation_l	knee_angle_l	ankle_angle_l	subtalar_angle_l	mtp_angle_l	lumbar_extension	lumbar_bending	lumbar_rotation
      1.40850000	     -4.62982425	     -3.39453728	    -16.04787016	      0.98147209	      0.96521742	      0.32757971	    -18.98283078	      2.84666626	     11.70346110	    -11.43311058	     16.91440615	      3.76956023	      6.75245054	     36.20197377	    -10.19057092	    -10.47918163	     -3.70188304	     12.66211117	     -5.45484343	     -1.52804426	      4.66037558	      3.15907298	     12.90736861
      1.41266667	     -4.66471628	     -3.27007905	    -16.22247931	      0.98814501	      0.96397379	      0.32748190	    -19.17492887	      2.55494681	     11.67713794	    -11.63283230	     16.69298495	      3.88598982	      7.62773301	     36.22709928	    -10.13131057	    -10.24619351	     -4.24235516	     12.70735017	     -5.90756340	     -1.03174760	      4.81331373	      3.02693782	     13.02415424
      1.41683333	     -4.72227255	     -3.14133660	    -16.37451959	      0.99487753	      0.96271433	      0.32733310	    -19.32959939	      2.27355586	     11.59600238	    -11.85300319	     16.39467976	      3.92744835	      7.67576858	     36.30560779	    -10.06867452	    -10.17747016	     -4.85442321	     12.77223518	     -6.06865782	     -0.99403504	      4.99223330	      2.92297877	     13.05945325
      1.42100000	     -4.76290594	     -2.99958734	    -16.51139024	      1.00165433	      0.96148106	      0.32713404	    -19.48153896	      1.97480902	     11.46134167	    -12.10870358	     16.13738186	      4.07869361	      8.45219394	     36.33580710	     -9.95770825	     -9.90780375	     -5.39377303	     12.63418659	     -6.63886219	     -0.51332911	      5.14467311	      2.78793302	     13.22665137
      1.42516667	     -4.83364748	     -2.84628409	    -16.65680650	      1.00848260	      0.96023697	      0.32694900	    -19.59615657	      1.67780947	     11.39435801	    -12.36933664	     15.81077193	      4.10690606	      8.49667255	     36.43631768	     -9.86699940	     -9.88871437	     -6.03631748	     12.61294415	     -6.81386797	     -0.47794974	      5.35231652	      2.67130352	     13.25009118
      1.42933333	     -4.92651941	     -2.69643347	    -16.76924281	      1.01534327	      0.95897941	      0.32670253	    -19.67124453	      1.40067782	     11.25217781	    -12.65601951	     15.42956383	      4.15548631	     11.10016306	     36.53454432	     -9.74523366	     -9.67886552	     -6.59713784	     12.26758936	     -7.34654875	      1.26344630	      5.61328911	      2.54266852	     13.25035867
      1.43350000	     -4.99432091	     -2.51626821	    -16.86650143	      1.02225430	      0.95775917	      0.32642691	    -19.74560486	      1.09347270	     11.07265698	    -12.99122143	     15.10169975	      4.22604902	     11.17361054	     36.63764835	     -9.58723470	     -9.56871827	     -7.22332741	     12.04160264	     -7.73315741	      1.30520373	      5.85854840	      2.36286705	     13.45127521
      1.43766667	     -5.05734686	     -2.31827044	    -16.92748761	      1.02926102	      0.95657660	      0.32609887	    -19.83542007	      0.77887244	     10.88606812	    -13.29546580	     14.70252214	      4.27672698	     11.25792782	     36.74578330	     -9.39053144	     -9.48060065	     -7.85664719	     11.72569067	     -8.05208521	      1.36005107	      6.10343401	      2.15034343	     13.47291173
      1.44183333	     -5.12783460	     -2.11592757	    -16.99967003	      1.03623435	      0.95541974	      0.32574482	    -19.85865333	      0.46125085	     10.63398696	    -13.70715349	     14.31697327	      4.32453967	     11.46418414	     36.85152983	     -9.18466084	     -9.32355567	     -8.45523702	     11.27604501	     -8.60139689	      1.49320068	      6.35187947	      1.96568874	     13.52523570
      1.44600000	     -5.19346148	     -1.90232318	    -17.01610040	      1.04327785	      0.95427784	      0.32530749	    -19.89394671	      0.15031624	     10.34873635	    -14.10035806	     13.86036560	      4.34952369	     11.75997853	     36.99437804	     -8.93991905	     -9.18046913	     -9.11917867	     10.78392524	     -9.05721611	      1.68312059	      6.60141829	      1.74583966	     13.50670670
      1.45016667	     -5.25239386	     -1.70026695	    -17.00590848	      1.05030934	      0.95318613	      0.32480925	    -19.92607060	     -0.14133202	     10.03802138	    -14.50968708	     13.33415777	      4.41302665	     12.35670335	     37.14336312	     -8.68202807	     -8.97118760	     -9.79336612	     10.17437328	     -9.58608647	      2.04733399	      6.83261121	      1.53660364	     13.50745030
      1.45433333	     -5.32879722	     -1.42846270	    -16.99544412	      1.05745198	      0.95208729	      0.32433335	    -19.89776926	     -0.49063863	      9.69409881	    -14.97894091	     12.84490280	      4.35454007	     12.85546695	     37.34059292	     -8.38002113	     -8.92897973	    -10.51929263	      9.63977042	     -9.92527518	      2.33497560	      7.14106941	      1.24227829	     13.45460226
      1.45850000	     -5.33436795	     -1.18973706	    -16.93585986	      1.06454888	      0.95113855	      0.32375858	    -19.95598642	     -0.81542071	      9.31439056	    -15.40810911	     12.12825105	      4.32034330	     16.40509019	     37.49309321	     -8.06507048	     -8.86310489	    -11.28402392	      8.98062911	    -10.22363334	      4.27233600	      7.31459015	      0.94869727	     13.43409329
      1.46266667	     -5.42577399	     -0.93076688	    -16.84487063	      1.07169634	      0.95007521	      0.32314480	    -19.89041160	     -1.11467573	      8.89801098	    -15.92238761	     11.53393083	      4.24382290	     16.47281555	     37.77691201	     -7.73497192	     -8.74645185	    -12.12901737	      8.43172859	    -10.48367042	      4.28857083	      7.63479581	      0.66214178	     13.36149957
      1.46683333	     -5.47734192	     -0.65679060	    -16.72212325	      1.07885271	      0.94910936	      0.32245493	    -19.84736945	     -1.43337076	      8.42582937	    -16.45926021	     10.88385603	      4.19996340	     16.62439885	     38.03609239	     -7.35699878	     -8.58772966	    -12.99491745	      7.81829566	    -10.81841217	      4.33193021	      7.89559963	      0.33581031	     13.25825646
      1.47100000	     -5.51333027	     -0.39146756	    -16.55703697	      1.08601331	      0.94820986	      0.32167420	    -19.81213089	     -1.73652340	      7.90232820	    -17.01099253	     10.16845370	      4.18112378	     16.98939860	     38.30088765	     -6.95187237	     -8.36220714	    -13.89339123	      7.15014678	    -11.19035046	      4.44429967	      8.12263563	      0.01933617	     13.13277510
      1.47516667	     -5.55874784	     -0.11002315	    -16.37814350	      1.09318084	      0.94732486	      0.32087259	    -19.73765419	     -2.04579476	      7.35506545	    -17.61103567	      9.41878356	      4.11299082	     17.57426459	     38.61097236	     -6.53594773	     -8.18618130	    -14.86414415	      6.57028439	    -11.45083270	      4.60683536	      8.37371436	     -0.32908698	     12.96314020
      1.47933333	     -5.53267108	      0.17406097	    -16.17252751	      1.10037344	      0.94658523	      0.32004291	    -19.73386902	     -2.36857263	      6.76522287	    -18.21068188	      8.58821242	      3.99469262	     17.63988159	     38.87762028	     -6.10467008	     -8.13399652	    -15.91991318	      6.20485516	    -11.43202429	      4.62507045	      8.54891299	     -0.70134140	     12.95969779
      1.48350000	     -5.56402798	      0.47135350	    -15.92684227	      1.10755612	      0.94579939	      0.31908837	    -19.64110909	     -2.68202540	      6.12617932	    -18.85994191	      7.74865148	      3.95654971	     18.36515627	     39.20621472	     -5.61623135	     -7.84931514	    -16.95179327	      5.62104099	    -11.81398573	      4.79034384	      8.75809868	     -1.09116058	     12.62440823
      1.48766667	     -5.51252733	      0.79718768	    -15.66241207	      1.11482477	      0.94516686	      0.31814727	    -19.63448452	     -3.04515996	      5.41954341	    -19.48151491	      6.74144132	      3.78546461	     22.85292320	     39.46625814	     -5.09824374	     -7.74478126	    -18.04764053	      5.29562306	    -11.84502719	      5.64120338	      8.92029885	     -1.55861267	     12.59233309
      1.49183333	     -5.46846965	      1.08402567	    -15.40769243	      1.12202207	      0.94459490	      0.31717263	    -19.58717916	     -3.37117712	      4.73657835	    -20.17883549	      5.75390849	      3.69386803	     22.85260236	     39.74539621	     -4.62734166	     -7.66526225	    -19.19071113	      5.03192386	    -11.82403453	      5.63738842	      9.06654318	     -1.93278044	     12.54323531
      1.49600000	     -5.41613174	      1.39081647	    -15.11822462	      1.12926199	      0.94406812	      0.31614342	    -19.53922627	     -3.71233474	      4.00377551	    -20.88727332	      4.73107760	      3.59699030	     22.87407221	     40.01380363	     -4.10963462	     -7.54445397	    -20.32816259	      4.79438731	    -11.81019675	      5.63632535	      9.21046664	     -2.36588467	     12.44242026
      1.50016667	     -5.34113122	      1.69642991	    -14.81203159	      1.13649350	      0.94362637	      0.31505685	    -19.49813243	     -4.06054463	      3.23648183	    -21.61863906	      3.65563512	      3.50631276	     22.91620283	     40.24888648	     -3.57221856	     -7.41845666	    -21.45443374	      4.60063387	    -11.83207196	      5.63415032	      9.31516291	     -2.80815053	     12.30502166
      1.50433333	     -5.20025646	      2.03674433	    -14.46897450	      1.14378721	      0.94331686	      0.31390478	    -19.52323766	     -4.45611877	      2.39851272	    -22.34592561	      2.54588920	      3.39157994	     23.17477099	     40.39514218	     -2.95361752	     -7.26417004	    -22.53632532	      4.38947365	    -11.94335193	      5.61262415	      9.30753802	     -3.34236354	     11.88155434
